<?xml version="1.0" standalone="no"?>
<svg xmlns:xlink="http://www.w3.org/1999/xlink" id="wave" style="transform:rotate(0deg); transition: 0.3s" viewBox="0 0 1440 490" version="1.1" xmlns="http://www.w3.org/2000/svg"><defs><linearGradient id="sw-gradient-0" x1="0" x2="0" y1="1" y2="0"><stop stop-color="rgba(129.084, 217.033, 255, 1)" offset="0%"/><stop stop-color="rgba(11, 107.029, 255, 1)" offset="100%"/></linearGradient></defs><path style="transform:translate(0, 0px); opacity:1" fill="url(#sw-gradient-0)" d="M0,245L40,277.7C80,310,160,376,240,367.5C320,359,400,278,480,236.8C560,196,640,196,720,179.7C800,163,880,131,960,122.5C1040,114,1120,131,1200,155.2C1280,180,1360,212,1440,261.3C1520,310,1600,376,1680,359.3C1760,343,1840,245,1920,212.3C2000,180,2080,212,2160,212.3C2240,212,2320,180,2400,155.2C2480,131,2560,114,2640,147C2720,180,2800,261,2880,245C2960,229,3040,114,3120,65.3C3200,16,3280,33,3360,49C3440,65,3520,82,3600,98C3680,114,3760,131,3840,179.7C3920,229,4000,310,4080,334.8C4160,359,4240,327,4320,277.7C4400,229,4480,163,4560,163.3C4640,163,4720,229,4800,285.8C4880,343,4960,392,5040,343C5120,294,5200,147,5280,138.8C5360,131,5440,261,5520,318.5C5600,376,5680,359,5720,351.2L5760,343L5760,490L5720,490C5680,490,5600,490,5520,490C5440,490,5360,490,5280,490C5200,490,5120,490,5040,490C4960,490,4880,490,4800,490C4720,490,4640,490,4560,490C4480,490,4400,490,4320,490C4240,490,4160,490,4080,490C4000,490,3920,490,3840,490C3760,490,3680,490,3600,490C3520,490,3440,490,3360,490C3280,490,3200,490,3120,490C3040,490,2960,490,2880,490C2800,490,2720,490,2640,490C2560,490,2480,490,2400,490C2320,490,2240,490,2160,490C2080,490,2000,490,1920,490C1840,490,1760,490,1680,490C1600,490,1520,490,1440,490C1360,490,1280,490,1200,490C1120,490,1040,490,960,490C880,490,800,490,720,490C640,490,560,490,480,490C400,490,320,490,240,490C160,490,80,490,40,490L0,490Z"/></svg>